<svg xmlns="http://www.w3.org/2000/svg" viewBox="0 0 1400 1600" role="img" aria-label="Seventy-Six">
  <defs>
    <linearGradient id="bg" x1="0" y1="0" x2="1" y2="1">
      <stop offset="0%" stop-color="#140d11"/>
      <stop offset="52%" stop-color="#5a2b2f"/>
      <stop offset="100%" stop-color="#f0a86d"/>
    </linearGradient>
    <radialGradient id="glowA" cx="20%" cy="18%" r="60%">
      <stop offset="0%" stop-color="rgba(255,255,255,0.55)" stop-opacity="0.35"/>
      <stop offset="100%" stop-color="rgba(255,255,255,0)" stop-opacity="0"/>
    </radialGradient>
    <radialGradient id="glowB" cx="80%" cy="22%" r="42%">
      <stop offset="0%" stop-color="rgba(255,255,255,0.5)" stop-opacity="0.22"/>
      <stop offset="100%" stop-color="rgba(255,255,255,0)" stop-opacity="0"/>
    </radialGradient>
    <filter id="blur"><feGaussianBlur stdDeviation="38"/></filter>
  </defs>
  <rect width="1400" height="1600" fill="url(#bg)"/>
  <ellipse cx="340" cy="290" rx="340" ry="260" fill="white" opacity="0.09" filter="url(#blur)"/>
  <ellipse cx="1160" cy="360" rx="250" ry="220" fill="white" opacity="0.08" filter="url(#blur)"/>
  <rect x="74" y="74" width="1252" height="1452" rx="60" fill="rgba(255,255,255,0.04)" stroke="rgba(255,255,255,0.12)"/>
  <g opacity="0.8">
    <rect x="150" y="930" width="58" height="270" rx="29" fill="rgba(255,255,255,0.78)"/>
    <rect x="248" y="830" width="58" height="370" rx="29" fill="rgba(255,255,255,0.86)"/>
    <rect x="346" y="720" width="58" height="480" rx="29" fill="rgba(255,255,255,0.94)"/>
    <rect x="444" y="860" width="58" height="340" rx="29" fill="rgba(255,255,255,0.8)"/>
    <rect x="542" y="640" width="58" height="560" rx="29" fill="rgba(255,255,255,0.98)"/>
    <rect x="640" y="900" width="58" height="300" rx="29" fill="rgba(255,255,255,0.75)"/>
    <rect x="738" y="780" width="58" height="420" rx="29" fill="rgba(255,255,255,0.9)"/>
    <rect x="836" y="960" width="58" height="240" rx="29" fill="rgba(255,255,255,0.72)"/>
    <rect x="934" y="700" width="58" height="500" rx="29" fill="rgba(255,255,255,0.95)"/>
    <rect x="1032" y="850" width="58" height="350" rx="29" fill="rgba(255,255,255,0.82)"/>
    <rect x="1130" y="770" width="58" height="430" rx="29" fill="rgba(255,255,255,0.88)"/>
  </g>
  <rect x="150" y="1242" width="1040" height="2" fill="rgba(255,255,255,0.12)"/>
  <text x="150" y="198" fill="rgba(255,255,255,0.65)" font-size="30" font-family="Inter, Arial, sans-serif" letter-spacing="10">ECHOVERSE | AN AEROVISTA PRODUCTION</text>
  <text x="150" y="290" fill="white" font-size="110" font-family="Inter, Arial, sans-serif" font-weight="700">Seventy-Six</text>
  <text x="150" y="352" fill="rgba(255,255,255,0.78)" font-size="34" font-family="Inter, Arial, sans-serif" letter-spacing="4">MEMORY ANCHOR</text>
  <text x="150" y="1428" fill="rgba(255,255,255,0.72)" font-size="34" font-family="Inter, Arial, sans-serif" letter-spacing="4">MAD MOOD MUSIC</text>
  <text x="150" y="1478" fill="rgba(255,255,255,0.5)" font-size="24" font-family="Inter, Arial, sans-serif" letter-spacing="6">DIGITAL COVER PLACEHOLDER · REPLACE ANYTIME</text>
</svg>